<?xml version="1.0" encoding="UTF-8"?>
<!DOCTYPE svg PUBLIC "-//W3C//DTD SVG 1.1//EN" "http://www.w3.org/Graphics/SVG/1.1/DTD/svg11.dtd">
<svg xmlns="http://www.w3.org/2000/svg" version="1.1" width="512px" height="512px" style="shape-rendering:geometricPrecision; text-rendering:geometricPrecision; image-rendering:optimizeQuality; fill-rule:evenodd; clip-rule:evenodd" xmlns:xlink="http://www.w3.org/1999/xlink">
<g><path style="opacity:0.974" fill="#662113" d="M 350.5,68.5 C 348.983,68.5106 347.816,69.1772 347,70.5C 337.364,86.6112 327.197,102.278 316.5,117.5C 311.288,113.065 305.622,109.399 299.5,106.5C 306.46,92.914 313.127,79.2473 319.5,65.5C 328.807,44.0514 339.807,23.5514 352.5,4C 360.629,-0.927374 368.129,-0.0940403 375,6.5C 378.173,11.0232 379.173,16.0232 378,21.5C 369.353,37.4581 360.187,53.1248 350.5,68.5 Z"/></g>
<g><path style="opacity:0.985" fill="#ccd5dc" d="M 319.5,65.5 C 313.127,79.2473 306.46,92.914 299.5,106.5C 286.4,104.866 274.067,107.033 262.5,113C 259.317,116.015 256.317,119.182 253.5,122.5C 256.768,123.487 260.102,123.82 263.5,123.5C 237.958,124.955 212.292,124.455 186.5,122C 173.178,120.24 159.844,118.573 146.5,117C 126.725,112.298 106.891,107.798 87,103.5C 84.7002,103.494 82.5336,103.994 80.5,105C 71.3156,113.392 71.3156,121.892 80.5,130.5C 66.3809,127.271 53.3809,121.604 41.5,113.5C 37.9128,110.305 36.7462,106.305 38,101.5C 40.2634,98.114 43.0968,95.2807 46.5,93C 65.3928,82.1878 85.7262,75.5212 107.5,73C 177.894,62.605 248.561,60.105 319.5,65.5 Z"/></g>
<g><path style="opacity:0.986" fill="#cbd5dc" d="M 350.5,68.5 C 377.428,70.6522 403.761,75.8189 429.5,84C 434.802,86.6511 440.136,89.3178 445.5,92C 450.74,94.9021 454.074,99.2355 455.5,105C 455.299,107.111 454.633,108.945 453.5,110.5C 443.739,119.883 432.072,125.883 418.5,128.5C 426.636,119.966 426.303,111.799 417.5,104C 415.188,102.651 412.688,101.818 410,101.5C 398.592,103.447 387.425,106.281 376.5,110C 356.852,113.402 337.185,116.568 317.5,119.5C 317.167,118.833 316.833,118.167 316.5,117.5C 327.197,102.278 337.364,86.6112 347,70.5C 347.816,69.1772 348.983,68.5106 350.5,68.5 Z"/></g>
<g><path style="opacity:1" fill="#fefefe" d="M 418.5,128.5 C 413.828,129.834 409.161,131.167 404.5,132.5C 378.845,137.922 353.178,142.589 327.5,146.5C 321.596,146.321 315.929,146.988 310.5,148.5C 298.114,149.075 285.78,150.075 273.5,151.5C 241.13,153.245 208.797,152.745 176.5,150C 158.337,146.269 140.003,143.269 121.5,141C 112.657,138.106 103.657,135.94 94.5,134.5C 90.1231,132.238 85.4564,130.905 80.5,130.5C 71.3156,121.892 71.3156,113.392 80.5,105C 82.5336,103.994 84.7002,103.494 87,103.5C 106.891,107.798 126.725,112.298 146.5,117C 159.844,118.573 173.178,120.24 186.5,122C 212.292,124.455 237.958,124.955 263.5,123.5C 281.553,122.727 299.553,121.393 317.5,119.5C 337.185,116.568 356.852,113.402 376.5,110C 387.425,106.281 398.592,103.447 410,101.5C 412.688,101.818 415.188,102.651 417.5,104C 426.303,111.799 426.636,119.966 418.5,128.5 Z"/></g>
<g><path style="opacity:1" fill="#609340" d="M 299.5,106.5 C 305.622,109.399 311.288,113.065 316.5,117.5C 316.833,118.167 317.167,118.833 317.5,119.5C 299.553,121.393 281.553,122.727 263.5,123.5C 260.102,123.82 256.768,123.487 253.5,122.5C 256.317,119.182 259.317,116.015 262.5,113C 274.067,107.033 286.4,104.866 299.5,106.5 Z"/></g>
<g><path style="opacity:0.977" fill="#8899a6" d="M 453.5,110.5 C 453.291,111.922 452.791,113.255 452,114.5C 391.667,172.167 331.333,229.833 271,287.5C 270.167,335.503 270.333,383.503 271.5,431.5C 294.119,442.809 316.452,454.642 338.5,467C 342.552,469.452 346.386,472.286 350,475.5C 354.569,484.003 352.736,490.837 344.5,496C 320.539,505.091 295.872,510.258 270.5,511.5C 254.5,511.5 238.5,511.5 222.5,511.5C 199.739,510.371 177.406,506.204 155.5,499C 146.927,497.261 141.927,492.095 140.5,483.5C 141.036,481.058 141.869,478.725 143,476.5C 146.743,473.379 150.576,470.379 154.5,467.5C 178.011,455.244 201.678,443.244 225.5,431.5C 226.667,383.503 226.833,335.503 226,287.5C 184.448,249.277 142.948,211.11 101.5,173C 96.4589,166.292 90.4589,160.625 83.5,156C 68.575,142.576 54.575,128.409 41.5,113.5C 53.3809,121.604 66.3809,127.271 80.5,130.5C 85.4564,130.905 90.1231,132.238 94.5,134.5C 140.744,174.904 188.078,214.071 236.5,252C 247.972,256.035 258.972,255.035 269.5,249C 314.692,210.302 359.692,171.468 404.5,132.5C 409.161,131.167 413.828,129.834 418.5,128.5C 432.072,125.883 443.739,119.883 453.5,110.5 Z"/></g>
<g><path style="opacity:1" fill="#cbd5db" d="M 404.5,132.5 C 359.692,171.468 314.692,210.302 269.5,249C 258.972,255.035 247.972,256.035 236.5,252C 188.078,214.071 140.744,174.904 94.5,134.5C 103.657,135.94 112.657,138.106 121.5,141C 140.003,143.269 158.337,146.269 176.5,150C 208.797,152.745 241.13,153.245 273.5,151.5C 265.016,152.493 256.349,152.826 247.5,152.5C 249.55,163.268 254.217,172.601 261.5,180.5C 254.171,193.154 247.338,206.154 241,219.5C 239.364,224.375 238.531,229.375 238.5,234.5C 242.826,233.72 246.326,231.386 249,227.5C 257.711,214.065 265.877,200.398 273.5,186.5C 287.004,190.007 300.004,188.507 312.5,182C 321.89,176.44 327.556,168.273 329.5,157.5C 330.482,154.038 330.815,150.371 330.5,146.5C 329.5,146.5 328.5,146.5 327.5,146.5C 353.178,142.589 378.845,137.922 404.5,132.5 Z"/></g>
<g><path style="opacity:1" fill="#97b885" d="M 327.5,146.5 C 328.5,146.5 329.5,146.5 330.5,146.5C 330.815,150.371 330.482,154.038 329.5,157.5C 329.5,154.167 329.5,150.833 329.5,147.5C 323.162,147.767 316.829,148.1 310.5,148.5C 315.929,146.988 321.596,146.321 327.5,146.5 Z"/></g>
<g><path style="opacity:1" fill="#5d923d" d="M 329.5,157.5 C 327.556,168.273 321.89,176.44 312.5,182C 300.004,188.507 287.004,190.007 273.5,186.5C 269.539,184.519 265.539,182.519 261.5,180.5C 254.217,172.601 249.55,163.268 247.5,152.5C 256.349,152.826 265.016,152.493 273.5,151.5C 285.78,150.075 298.114,149.075 310.5,148.5C 316.829,148.1 323.162,147.767 329.5,147.5C 329.5,150.833 329.5,154.167 329.5,157.5 Z"/></g>
<g><path style="opacity:1" fill="#682516" d="M 261.5,180.5 C 265.539,182.519 269.539,184.519 273.5,186.5C 265.877,200.398 257.711,214.065 249,227.5C 246.326,231.386 242.826,233.72 238.5,234.5C 238.531,229.375 239.364,224.375 241,219.5C 247.338,206.154 254.171,193.154 261.5,180.5 Z"/></g>
</svg>
